<?xml version="1.0" encoding="utf-8"?>
<!-- Generator: Adobe Illustrator 22.0.0, SVG Export Plug-In . SVG Version: 6.00 Build 0)  -->
<svg version="1.1" id="Livello_1" xmlns="http://www.w3.org/2000/svg" xmlns:xlink="http://www.w3.org/1999/xlink" x="0px" y="0px"
	 viewBox="0 0 24 24" style="enable-background:new 0 0 24 24;" xml:space="preserve">
<style type="text/css">
	.st0{fill:#FFFFFF;}
</style>
<path class="st0" d="M16.4,16.3l4.4,5.2L20,22.1L15.6,17c-1.5,1.2-3.2,1.7-5.1,1.7c-1.2,0-2.3-0.2-3.3-0.7s-2-1.1-2.7-1.8
	c-0.8-0.8-1.4-1.7-1.8-2.7C2.2,12.4,2,11.3,2,10.2C2,9,2.2,7.9,2.7,6.9s1.1-2,1.8-2.7s1.7-1.4,2.7-1.8s2.2-0.7,3.3-0.7
	c1.2,0,2.3,0.2,3.3,0.7s2,1.1,2.7,1.8s1.4,1.7,1.8,2.7C18.8,7.9,19,9,19,10.2c0,1.2-0.2,2.3-0.7,3.4C17.8,14.6,17.2,15.5,16.4,16.3
	L16.4,16.3z M10.5,17.7c1.4,0,2.6-0.3,3.8-1s2.1-1.6,2.7-2.7s1-2.4,1-3.8s-0.3-2.6-1-3.8s-1.6-2.1-2.7-2.7s-2.4-1-3.8-1
	c-1.4,0-2.6,0.3-3.8,1S4.7,5.3,4,6.4s-1,2.4-1,3.8c0,1.4,0.3,2.6,1,3.8s1.6,2.1,2.7,2.7C7.9,17.4,9.1,17.7,10.5,17.7z"/>
</svg>
